<svg width="27" height="17" viewBox="0 0 27 17" fill="none" xmlns="http://www.w3.org/2000/svg">
<path fill-rule="evenodd" clip-rule="evenodd" d="M0.529297 15.1205C0.529296 14.9837 0.583527 14.8524 0.680105 14.7555C0.776683 14.6587 0.907732 14.604 1.04454 14.6036H3.23543C4.0902 14.6036 5.10676 13.9909 5.5056 13.2353L11.5959 1.70132C12.7924 -0.564721 14.7381 -0.567686 15.9426 1.69591L22.0833 13.2371C22.4849 13.9919 23.5022 14.6036 24.3585 14.6036H26.4841C26.621 14.6039 26.7521 14.6585 26.8488 14.7554C26.9455 14.8523 26.9998 14.9836 26.9998 15.1205V16.256C26.9998 16.5414 26.7678 16.7728 26.4833 16.7728H23.3264C22.1871 16.7728 20.8306 15.9581 20.2954 14.951L14.851 4.70613C14.2497 3.57459 13.2748 3.57536 12.6742 4.70613L7.23307 14.951C6.69875 15.9571 5.3424 16.7728 4.20274 16.7728H1.04582C0.908797 16.7727 0.777417 16.7182 0.680561 16.6212C0.583704 16.5243 0.529297 16.3929 0.529297 16.2559V15.1205Z" fill="#FF5733" style="fill:#FF5733;fill:color(display-p3 1.0000 0.3412 0.2000);fill-opacity:1;"/>
</svg>
