<svg width="27" height="18" viewBox="0 0 27 18" fill="none" xmlns="http://www.w3.org/2000/svg">
<path fill-rule="evenodd" clip-rule="evenodd" d="M0.492188 2.45454C0.492187 2.59134 0.546417 2.72257 0.642995 2.81946C0.739573 2.91635 0.870622 2.97101 1.00743 2.97145H3.19832C4.05322 2.97145 4.99359 3.61727 5.29949 4.41546L12.0959 15.4023C13.0131 17.7953 14.5056 17.7962 15.4291 15.4055L22.2527 4.41546C22.5608 3.61791 23.5022 2.97145 24.3585 2.97145H26.4842C26.6211 2.97111 26.7522 2.9165 26.8489 2.81959C26.9455 2.72269 26.9998 2.59141 26.9998 2.45454V1.31913C27 1.25138 26.9868 1.18427 26.961 1.12163C26.9352 1.05899 26.8973 1.00204 26.8495 0.954052C26.8017 0.906059 26.7449 0.867958 26.6823 0.841927C26.6198 0.815897 26.5527 0.802446 26.485 0.802344H23.4546C22.3157 0.802344 21.0638 1.66627 20.6587 2.73104L14.5811 12.251C14.1257 13.4482 13.393 13.445 12.9448 12.2444L6.95026 2.73516C6.55168 1.66769 5.30542 0.802216 4.16588 0.802216H1.00897C0.871923 0.802284 0.74051 0.856775 0.643626 0.953707C0.546741 1.05064 0.492316 1.18208 0.492316 1.31913L0.492188 2.45454Z" fill="#FF5733" style="fill:#FF5733;fill:color(display-p3 1.0000 0.3412 0.2000);fill-opacity:1;"/>
</svg>
